<svg width="40" height="40" viewBox="0 0 40 40" fill="none" xmlns="http://www.w3.org/2000/svg">
<path d="M28.75 37.5H11.25C6.375 37.5 2.5 33.625 2.5 28.75V16.625C2.5 13.625 4.125 10.75 6.625 9.125L15.375 3.75C18.25 2 21.75 2 24.5 3.75L33.25 9.125C35.875 10.75 37.375 13.5 37.375 16.625V28.75C37.5 33.625 33.625 37.5 28.75 37.5ZM20 5C18.875 5 17.75 5.25 16.75 5.875L8 11.25C6.125 12.5 5 14.5 5 16.625V28.75C5 32.25 7.75 35 11.25 35H28.75C32.25 35 35 32.25 35 28.75V16.625C35 14.5 33.875 12.375 32 11.25L23.25 5.875C22.25 5.25 21.125 5 20 5Z" fill="#B7B6BE"/>
<path d="M17.5 20H15C14.25 20 13.75 19.5 13.75 18.75V16.25C13.75 15.5 14.25 15 15 15H17.5C18.25 15 18.75 15.5 18.75 16.25V18.75C18.75 19.5 18.25 20 17.5 20Z" fill="#B7B6BE"/>
<path d="M25 20H22.5C21.75 20 21.25 19.5 21.25 18.75V16.25C21.25 15.5 21.75 15 22.5 15H25C25.75 15 26.25 15.5 26.25 16.25V18.75C26.25 19.5 25.75 20 25 20Z" fill="#B7B6BE"/>
<path d="M17.5 27.5H15C14.25 27.5 13.75 27 13.75 26.25V23.75C13.75 23 14.25 22.5 15 22.5H17.5C18.25 22.5 18.75 23 18.75 23.75V26.25C18.75 27 18.25 27.5 17.5 27.5Z" fill="#B7B6BE"/>
<path d="M25 27.5H22.5C21.75 27.5 21.25 27 21.25 26.25V23.75C21.25 23 21.75 22.5 22.5 22.5H25C25.75 22.5 26.25 23 26.25 23.75V26.25C26.25 27 25.75 27.5 25 27.5Z" fill="#B7B6BE"/>
</svg>
