<svg width="24" height="24" viewBox="0 0 24 24" fill="none" xmlns="http://www.w3.org/2000/svg">
<g clip-path="url(#clip0_399_1818)">
<path d="M23.4124 2.18749C23.0207 1.79587 22.5501 1.59985 21.9999 1.59985H2C1.45001 1.59985 0.979313 1.79587 0.587421 2.18749C0.195749 2.57925 0 3.04991 0 3.59994V17.2C0 17.7502 0.195749 18.2208 0.587421 18.6127C0.979313 19.0043 1.45001 19.1999 2 19.1999H8.80011C8.80011 19.5165 8.73339 19.8418 8.60003 20.1749C8.46676 20.5083 8.3334 20.7998 8.20004 21.0497C8.06685 21.2999 8.00017 21.483 8.00017 21.5996C8.00017 21.8163 8.07929 22.0042 8.23765 22.1621C8.39592 22.3206 8.58344 22.4001 8.80011 22.4001H15.2001C15.4168 22.4001 15.6043 22.3207 15.7626 22.1621C15.9211 22.0042 16.0002 21.8163 16.0002 21.5996C16.0002 21.4916 15.9334 21.3102 15.8001 21.0561C15.6667 20.8021 15.5334 20.5059 15.4002 20.1688C15.2668 19.8312 15.2001 19.5083 15.2001 19.1999H22.0003C22.5502 19.1999 23.0208 19.0043 23.4124 18.6127C23.8042 18.2209 24 17.7502 24 17.2V3.59994C24.0002 3.04991 23.8042 2.57925 23.4124 2.18749ZM22.4 14C22.4 14.1083 22.3605 14.2019 22.2813 14.2812C22.2021 14.3602 22.1083 14.3997 21.9999 14.3997H2C1.89173 14.3997 1.79795 14.3602 1.71879 14.2812C1.63968 14.2017 1.60005 14.1083 1.60005 14V3.59994C1.60005 3.49158 1.63954 3.39789 1.71879 3.31873C1.79799 3.2397 1.89177 3.19999 2 3.19999H22.0002C22.1084 3.19999 22.2024 3.23957 22.2813 3.31873C22.3605 3.39793 22.4 3.49162 22.4 3.59994V14Z" fill="#758BFD"/>
</g>
<defs>
<clipPath id="clip0_399_1818">
<rect width="24" height="24" fill="white"/>
</clipPath>
</defs>
</svg>
