<svg width="24" height="24" viewBox="0 0 24 24" fill="none" xmlns="http://www.w3.org/2000/svg">
<g clip-path="url(#clip0_399_1788)">
<path d="M23.5013 17.9976L15.0233 2.41279C13.6612 0.119622 10.3407 0.116575 8.9767 2.41279L0.499073 17.9976C-0.893396 20.3408 0.792463 23.3081 3.52167 23.3081H20.478C23.2049 23.3081 24.8938 20.3432 23.5013 17.9976ZM12 20.4956C11.2248 20.4956 10.5937 19.8646 10.5937 19.0894C10.5937 18.3142 11.2248 17.6831 12 17.6831C12.7752 17.6831 13.4062 18.3142 13.4062 19.0894C13.4062 19.8646 12.7752 20.4956 12 20.4956ZM13.4062 14.8706C13.4062 15.6458 12.7752 16.2769 12 16.2769C11.2248 16.2769 10.5937 15.6458 10.5937 14.8706V7.83937C10.5937 7.06415 11.2248 6.43312 12 6.43312C12.7752 6.43312 13.4062 7.06415 13.4062 7.83937V14.8706Z" fill="#FF8C00"/>
</g>
<defs>
<clipPath id="clip0_399_1788">
<rect width="24" height="24" fill="white"/>
</clipPath>
</defs>
</svg>
