<svg width="17" height="22" viewBox="0 0 17 22" fill="none" xmlns="http://www.w3.org/2000/svg">
<circle cx="8.39135" cy="5.70209" r="3.80062" stroke="white" stroke-width="2.5"/>
<path d="M8.45473 13.0583C10.5564 13.0562 12.573 13.8887 14.0605 15.3721C15.4277 16.7355 16.2436 18.5462 16.3685 20.4606L15.9183 20.4545L15.9046 20.4552L15.4016 20.4621C15.2786 18.8027 14.5658 17.2355 13.3793 16.0523C12.0727 14.7495 10.3019 14.0185 8.4563 14.0204C6.61049 14.0223 4.84041 14.7573 3.53646 16.063C2.351 17.2502 1.64011 18.8213 1.52206 20.4833L0.556148 20.4838C0.675578 18.5665 1.48813 16.7507 2.85424 15.3828C4.33859 13.8965 6.35328 13.0606 8.45473 13.0583Z" fill="black" stroke="white"/>
</svg>
