<svg width="24" height="24" viewBox="0 0 24 24" fill="none" xmlns="http://www.w3.org/2000/svg">
<g clip-path="url(#clip0_512_3222)">
<path d="M23.1431 6.10496e-08C23.01 -5.01614e-05 22.8786 0.0308869 22.7596 0.0904005L16.2642 3.33894L8.91952 0.0741284C8.90752 0.0690057 8.89381 0.0681017 8.88095 0.062979C8.8479 0.0506243 8.8141 0.0403287 8.7798 0.0321424C8.7457 0.0229517 8.71105 0.0157699 8.67609 0.0106974C8.60648 0.00497208 8.53652 0.00497208 8.46696 0.0106974C8.43201 0.0157699 8.39736 0.0229517 8.36326 0.0321424C8.32895 0.0403287 8.29515 0.0506243 8.26211 0.062979C8.24925 0.0681017 8.23554 0.0689555 8.22354 0.0741284L0.509369 3.50266C0.199697 3.64017 0.00016341 3.94723 0.000213633 4.28603V23.1429C0.0003643 23.4329 0.147064 23.7031 0.390191 23.8612C0.633368 24.0195 0.940076 24.044 1.2053 23.9263L8.57148 20.6521L15.9377 23.9263C15.9505 23.9314 15.9642 23.9263 15.9771 23.9341C16.1846 24.0269 16.4228 24.0215 16.6259 23.9195C16.6396 23.9135 16.655 23.9195 16.6687 23.9101L23.5258 20.4815C23.8164 20.3363 23.9999 20.0393 23.9998 19.7144V0.857548C24.0001 0.384152 23.6165 0.000200951 23.1431 6.10496e-08ZM7.71438 19.1573L1.71446 21.8238V4.8432L7.71438 2.17664V19.1573ZM15.4285 21.8238L9.42862 19.1573V2.17664L15.4285 4.84315V21.8238ZM22.2856 19.1847L17.1428 21.7561V4.81573L22.2856 2.24434V19.1847Z" fill="#B7B6BE"/>
</g>
<defs>
<clipPath id="clip0_512_3222">
<rect width="24" height="24" fill="white"/>
</clipPath>
</defs>
</svg>
