<svg width="41" height="40" viewBox="0 0 41 40" fill="none" xmlns="http://www.w3.org/2000/svg">
<path d="M28.1656 38.31C26.0123 38.8767 23.5323 39.1667 20.6673 39.1667C17.8023 39.1667 15.3223 38.8767 13.169 38.31C13.174 32.7217 15.069 30.8333 20.6673 30.8333C26.2656 30.8333 28.1607 32.7233 28.1656 38.31ZM20.6673 14.1667C18.019 14.1667 17.334 14.8517 17.334 17.5C17.334 20.1483 18.019 20.8333 20.6673 20.8333C23.3156 20.8333 24.0006 20.1483 24.0006 17.5C24.0006 14.8517 23.3156 14.1667 20.6673 14.1667ZM39.0006 20.8333C39.0006 29.2133 36.6507 34.4417 31.464 37.0783C31.0973 30.47 27.7256 27.5 20.6673 27.5C13.609 27.5 10.2373 30.47 9.87065 37.0783C4.68565 34.4417 2.33398 29.2117 2.33398 20.8333C2.33398 7.98333 7.81732 2.5 20.6673 2.5C33.5173 2.5 39.0006 7.98333 39.0006 20.8333ZM27.334 17.5C27.334 13.015 25.1523 10.8333 20.6673 10.8333C16.1823 10.8333 14.0007 13.015 14.0007 17.5C14.0007 21.985 16.1823 24.1667 20.6673 24.1667C25.1523 24.1667 27.334 21.985 27.334 17.5Z" fill="#FF8C00"/>
</svg>
