<svg width="24" height="24" viewBox="0 0 24 24" fill="none" xmlns="http://www.w3.org/2000/svg">
<path fill-rule="evenodd" clip-rule="evenodd" d="M14.0248 4.53728C14.0248 3.96441 14.4892 3.5 15.0621 3.5H19.4628C20.0357 3.5 20.5001 3.96441 20.5001 4.53728V8.93808C20.5001 9.51095 20.0357 9.97536 19.4628 9.97536C18.89 9.97536 18.4256 9.51095 18.4256 8.93808V7.04127L12.8615 12.6054C12.4565 13.0105 11.7997 13.0105 11.3946 12.6054C10.9895 12.2003 10.9895 11.5435 11.3946 11.1385L16.9584 5.57456H15.0621C14.4892 5.57456 14.0248 5.11015 14.0248 4.53728ZM6.61185 4.42218C4.89326 4.42218 3.50006 5.8154 3.50006 7.53402V17.3882C3.50006 19.1068 4.89326 20.5 6.61185 20.5H16.4659C18.1845 20.5 19.5777 19.1068 19.5777 17.3882V13.239C19.5777 12.6662 19.1133 12.2018 18.5404 12.2018C17.9676 12.2018 17.5032 12.6662 17.5032 13.239V17.3882C17.5032 17.961 17.0388 18.4254 16.4659 18.4254H6.61185C6.03899 18.4254 5.57459 17.961 5.57459 17.3882V7.53402C5.57459 6.96114 6.03899 6.49674 6.61185 6.49674H10.7609C11.3338 6.49674 11.7982 6.03233 11.7982 5.45946C11.7982 4.88659 11.3338 4.42218 10.7609 4.42218H6.61185Z" fill="white"/>
</svg>
