<svg width="24" height="24" viewBox="0 0 24 24" fill="none" xmlns="http://www.w3.org/2000/svg">
<path d="M13.0011 21.5454C13.0011 21.6767 12.9752 21.8068 12.925 21.9281C12.8748 22.0495 12.8011 22.1597 12.7082 22.2526C12.6154 22.3454 12.5051 22.4191 12.3838 22.4693C12.2624 22.5196 12.1324 22.5454 12.0011 22.5454H8.00108C6.67548 22.5438 5.40462 22.0166 4.46727 21.0792C3.52992 20.1419 3.00263 18.871 3.00107 17.5454V7.54538C3.00263 6.21978 3.52992 4.94892 4.46727 4.01158C5.40462 3.07424 6.67548 2.54696 8.00108 2.54541H12.0011C12.2663 2.54541 12.5206 2.65077 12.7082 2.8383C12.8957 3.02583 13.0011 3.28018 13.0011 3.54539C13.0011 3.81061 12.8957 4.06496 12.7082 4.25249C12.5206 4.44002 12.2663 4.54538 12.0011 4.54538H8.00108C7.2057 4.54625 6.44314 4.8626 5.88072 5.42502C5.3183 5.98744 5.00195 6.75 5.00108 7.54538V17.5454C5.00195 18.3408 5.3183 19.1033 5.88072 19.6658C6.44314 20.2282 7.2057 20.5445 8.00108 20.5454H12.0011C12.1324 20.5454 12.2624 20.5712 12.3838 20.6215C12.5051 20.6717 12.6154 20.7454 12.7082 20.8382C12.8011 20.9311 12.8748 21.0413 12.925 21.1627C12.9752 21.284 13.0011 21.4141 13.0011 21.5454ZM20.9239 12.9275C20.9992 12.7447 21.0189 12.5437 20.9803 12.3497C20.9418 12.1558 20.8468 11.9776 20.7073 11.8375L16.7081 7.83835C16.6153 7.7455 16.505 7.67185 16.3837 7.6216C16.2624 7.57135 16.1324 7.54548 16.0011 7.54548C15.8698 7.54548 15.7397 7.57135 15.6184 7.6216C15.4971 7.67185 15.3869 7.7455 15.294 7.83835C15.2012 7.9312 15.1275 8.04143 15.0773 8.16274C15.027 8.28405 15.0012 8.41408 15.0012 8.54539C15.0012 8.6767 15.027 8.80672 15.0773 8.92803C15.1275 9.04935 15.2012 9.15958 15.294 9.25243L17.587 11.5454H10.0011C9.73584 11.5454 9.48149 11.6508 9.29396 11.8383C9.10642 12.0258 9.00107 12.2802 9.00107 12.5454C9.00107 12.8106 9.10642 13.065 9.29396 13.2525C9.48149 13.44 9.73584 13.5454 10.0011 13.5454H17.587L15.294 15.8384C15.2012 15.9312 15.1275 16.0414 15.0773 16.1628C15.027 16.2841 15.0012 16.4141 15.0012 16.5454C15.0012 16.6767 15.027 16.8067 15.0773 16.9281C15.1275 17.0494 15.2012 17.1596 15.294 17.2524C15.3869 17.3453 15.4971 17.4189 15.6184 17.4692C15.7397 17.5194 15.8698 17.5453 16.0011 17.5453C16.1324 17.5453 16.2624 17.5194 16.3837 17.4692C16.505 17.4189 16.6153 17.3453 16.7081 17.2524L20.7073 13.2532C20.8003 13.16 20.8739 13.0493 20.9239 12.9275Z" fill="#758bfd"/>
</svg>