<svg width="24" height="24" viewBox="0 0 24 24" fill="none" xmlns="http://www.w3.org/2000/svg">
<g clip-path="url(#clip0_791_153)">
<path d="M23.1429 6.10496e-08C23.0098 -5.01614e-05 22.8784 0.0308869 22.7594 0.0904005L16.264 3.33894L8.91931 0.0741284C8.9073 0.0690057 8.89359 0.0681017 8.88073 0.062979C8.84769 0.0506243 8.81389 0.0403287 8.77959 0.0321424C8.74549 0.0229517 8.71083 0.0157699 8.67588 0.0106974C8.60627 0.00497208 8.53631 0.00497208 8.46675 0.0106974C8.4318 0.0157699 8.39714 0.0229517 8.36304 0.0321424C8.32874 0.0403287 8.29494 0.0506243 8.26189 0.062979C8.24904 0.0681017 8.23533 0.0689555 8.22332 0.0741284L0.509155 3.50266C0.199484 3.64017 -5.0213e-05 3.94723 9.4785e-09 4.28603V23.1429C0.000150677 23.4329 0.14685 23.7031 0.389977 23.8612C0.633154 24.0195 0.939863 24.044 1.20509 23.9263L8.57126 20.6521L15.9374 23.9263C15.9503 23.9314 15.964 23.9263 15.9769 23.9341C16.1844 24.0269 16.4226 24.0215 16.6257 23.9195C16.6394 23.9135 16.6548 23.9195 16.6685 23.9101L23.5255 20.4815C23.8161 20.3363 23.9997 20.0393 23.9995 19.7144V0.857548C23.9998 0.384152 23.6163 0.000200951 23.1429 6.10496e-08ZM7.71417 19.1573L1.71424 21.8238V4.8432L7.71417 2.17664V19.1573ZM15.4283 21.8238L9.42841 19.1573V2.17664L15.4283 4.84315V21.8238ZM22.2854 19.1847L17.1426 21.7561V4.81573L22.2854 2.24434V19.1847Z" fill="#758BFD"/>
</g>
<defs>
<clipPath id="clip0_791_153">
<rect width="24" height="24" fill="white"/>
</clipPath>
</defs>
</svg>
