<svg width="41" height="40" viewBox="0 0 41 40" fill="none" xmlns="http://www.w3.org/2000/svg">
<g clip-path="url(#clip0_732_330)">
<path d="M21.5691 6.48374L21.5691 6.48375L29.7933 22.6757C30.0688 23.218 29.7382 23.8718 29.1382 23.9715L17.5323 25.8996L11.6955 14.4079L20.1406 6.24409C20.5762 5.82309 21.2949 5.94366 21.5691 6.48374ZM17.0995 35.0301L14.4546 29.8228L16.434 28.8174L19.0789 34.0247C19.3041 34.468 19.1272 35.0099 18.6838 35.2351L18.6838 35.2351L18.3099 35.4251C18.3099 35.4251 18.3099 35.4251 18.3099 35.4251C17.8666 35.6502 17.3247 35.4734 17.0995 35.0301ZM4.17822 19.5732L4.06677 19.6298L4.17822 19.5732C3.95304 19.1299 4.12989 18.588 4.57322 18.3628L9.78044 15.7179L15.3921 26.7662L10.1848 29.411C9.74149 29.6362 9.19959 29.4594 8.97442 29.0161L4.17822 19.5732ZM11.2267 31.4623L12.4033 30.8646L15.0482 36.0719C15.8488 37.6481 17.7756 38.2769 19.3517 37.4763L19.7257 37.2863C21.3019 36.4858 21.9306 34.559 21.13 32.9828L18.6248 28.0502L29.5152 26.2411C31.6488 25.8866 32.824 23.5621 31.8446 21.6338L23.6204 5.44185C22.6451 3.52171 20.0901 3.09315 18.5417 4.58999L9.60997 13.2241L3.53136 16.3116C1.95517 17.1121 1.32641 19.0389 2.12699 20.6151L6.92316 30.0579C7.72373 31.6341 9.6505 32.2628 11.2267 31.4623Z" fill="#FF8C00" stroke="#FF8C00" stroke-width="0.25"/>
<path d="M32.1191 1.25269L32.1191 1.25267C31.6739 0.799385 30.9456 0.792758 30.4923 1.23788L30.4923 1.23789L26.0348 5.61503C25.5814 6.06017 25.5749 6.78844 26.02 7.24177L26.02 7.24178C26.4651 7.69512 27.1934 7.70167 27.6467 7.25662L27.6467 7.25661L32.1042 2.87943C32.5576 2.43429 32.5641 1.70597 32.1191 1.25269Z" fill="#FF8C00" stroke="#FF8C00" stroke-width="0.25"/>
<path d="M37.3842 7.2269C37.0765 6.67117 36.3764 6.47009 35.8207 6.77781L35.8207 6.77781L29.0932 10.503L29.0932 10.503C28.5375 10.8108 28.3364 11.5108 28.6441 12.0666L28.6442 12.0667C28.952 12.6224 29.6519 12.8234 30.2078 12.5157L30.2078 12.5157L36.9351 8.79053L36.8748 8.68166L36.9351 8.79052C37.4909 8.48271 37.692 7.78274 37.3842 7.2269ZM37.3842 7.2269L37.2749 7.28745L37.3842 7.22689C37.3842 7.22689 37.3842 7.2269 37.3842 7.2269Z" fill="#FF8C00" stroke="#FF8C00" stroke-width="0.25"/>
<path d="M31.3384 16.8387C31.4792 17.4582 32.0957 17.8462 32.7151 17.7054L32.7152 17.7054L39.5631 16.1483L39.5631 16.1483C40.1825 16.0074 40.5705 15.3911 40.4297 14.7715L40.4297 14.7715C40.2888 14.1521 39.6725 13.7641 39.0529 13.905C39.0529 13.905 39.0529 13.905 39.0529 13.905L32.2051 15.4619L32.2051 15.4619C31.5855 15.6028 31.1975 16.2192 31.3384 16.8387ZM31.3384 16.8387L31.4603 16.811L31.3384 16.8387C31.3384 16.8387 31.3384 16.8387 31.3384 16.8387Z" fill="#FF8C00" stroke="#FF8C00" stroke-width="0.25"/>
</g>
<defs>
<clipPath id="clip0_732_330">
<rect width="40" height="40" fill="white" transform="translate(0.333008)"/>
</clipPath>
</defs>
</svg>
