<svg width="24" height="24" viewBox="0 0 24 24" fill="none" xmlns="http://www.w3.org/2000/svg">
<g clip-path="url(#clip0_399_1775)">
<path d="M1.82994 14.934C1.02858 14.934 0.376953 15.5856 0.376953 16.387C0.376953 17.1883 1.02858 17.84 1.82994 17.84H3.95808L2.96332 21.8191C2.86898 22.1958 2.92716 22.5864 3.12688 22.9191C3.32656 23.2522 3.6437 23.487 4.01975 23.581C4.13538 23.6101 4.25458 23.625 4.37342 23.625C5.04066 23.625 5.62032 23.1724 5.78205 22.5239L6.95305 17.84H14.1291L13.1343 21.819C13.04 22.1958 13.0982 22.5863 13.2979 22.9191C13.4976 23.2522 13.8147 23.487 14.1908 23.581C14.3064 23.6101 14.4256 23.625 14.5444 23.625C15.2117 23.625 15.7913 23.1724 15.953 22.5239L17.1241 17.84H22.172C22.9733 17.84 23.6249 17.1883 23.6249 16.3869C23.6249 15.5856 22.9733 14.934 22.172 14.934H17.8506L19.3172 9.06735H22.172C22.9733 9.06735 23.6249 8.41568 23.6249 7.61432C23.6249 6.81296 22.9733 6.16133 22.172 6.16133H20.0438L21.0386 2.18226C21.1329 1.80552 21.0747 1.41496 20.875 1.08221C20.6753 0.749093 20.3582 0.514261 19.9825 0.420278C19.6072 0.324481 19.2159 0.381976 18.8839 0.580598C18.5501 0.780323 18.3142 1.09888 18.2198 1.4774L17.0488 6.16133H9.87281L10.8676 2.18227C10.9619 1.80553 10.9037 1.41497 10.704 1.08221C10.5043 0.749101 10.1872 0.514268 9.81151 0.420286C9.43587 0.324841 9.04563 0.382658 8.71256 0.580598C8.37908 0.780323 8.14319 1.09888 8.04884 1.4774L6.87784 6.16133H1.82994C1.02858 6.16133 0.376953 6.81296 0.376953 7.61432C0.376953 8.41568 1.02858 9.06736 1.82994 9.06736H6.15128L4.68465 14.934H1.82994ZM9.14625 9.06735H16.3223L14.8556 14.934H7.67961L9.14625 9.06735Z" fill="#758BFD"/>
</g>
<defs>
<clipPath id="clip0_399_1775">
<rect width="24" height="24" fill="white"/>
</clipPath>
</defs>
</svg>
