<svg width="24" height="24" viewBox="0 0 24 24" fill="none" xmlns="http://www.w3.org/2000/svg">
<path fill-rule="evenodd" clip-rule="evenodd" d="M3.10058 11.0007C2.54826 11.0008 2.10063 11.4485 2.10067 12.0008C2.10072 12.5531 2.54843 13.0008 3.10074 13.0007L11.0001 13V20.8994C11.0001 21.4517 11.4479 21.8994 12.0001 21.8994C12.5524 21.8994 13.0001 21.4517 13.0001 20.8994V12.9999L20.8998 12.9992C21.452 12.9991 21.8997 12.5514 21.8996 11.9991C21.8996 11.4468 21.4518 10.9991 20.8995 10.9992L13.0001 10.9998L13.0001 3.10039C13.0001 2.54811 12.5524 2.10039 12.0001 2.10039C11.4478 2.10039 11.0001 2.5481 11.0001 3.1004L11.0001 11.0001L3.10058 11.0007Z" fill="#FF8C00"/>
</svg>
