<svg width="18" height="18" viewBox="0 0 18 18" fill="none" xmlns="http://www.w3.org/2000/svg">
<g clip-path="url(#clip0_399_1801)">
<path d="M17.2402 4.08894C17.2192 3.95619 17.0062 2.76369 16.1422 1.89294C15.2745 1.04394 14.0775 0.833941 13.944 0.812941C13.7662 0.783691 13.5847 0.821191 13.4325 0.915691C13.3792 0.948691 12.597 1.43844 11.0527 2.74419C11.847 3.02469 12.8737 3.51144 13.7062 4.32594C14.5417 5.14344 15.0412 6.14919 15.3277 6.92919C16.6177 5.42169 17.103 4.65819 17.1352 4.60569C17.2312 4.45194 17.2687 4.26819 17.2402 4.08894Z" fill="#FF8C00"/>
<path d="M9.71316 3.91724C8.90841 4.64324 7.97166 5.52524 6.89916 6.59024C2.35191 11.1052 1.15941 12.9105 1.11066 12.9847C1.04241 13.0897 1.00116 13.2105 0.991406 13.335L0.752156 16.3882C0.735656 16.6072 0.814406 16.8217 0.969656 16.977C1.11066 17.118 1.30191 17.1967 1.50066 17.1967C1.51941 17.1967 1.53891 17.1967 1.55841 17.1945L4.63416 16.9575C4.75791 16.9477 4.87716 16.908 4.98141 16.8412C5.05641 16.7932 6.87366 15.609 11.4202 11.0947C12.5167 10.0057 13.4212 9.05774 14.1614 8.24699C14.0482 7.76024 13.6529 6.37124 12.6577 5.39849C11.6482 4.41074 10.1962 4.02374 9.71316 3.91724Z" fill="#FF8C00"/>
</g>
<defs>
<clipPath id="clip0_399_1801">
<rect width="18" height="18" fill="white"/>
</clipPath>
</defs>
</svg>
