<svg width="24" height="24" viewBox="0 0 24 24" fill="none" xmlns="http://www.w3.org/2000/svg">
<path d="M16.499 22.986C15.207 23.326 13.719 23.5 12 23.5C10.281 23.5 8.793 23.326 7.501 22.986C7.504 19.633 8.641 18.5 12 18.5C15.359 18.5 16.496 19.634 16.499 22.986ZM12 8.5C10.411 8.5 10 8.911 10 10.5C10 12.089 10.411 12.5 12 12.5C13.589 12.5 14 12.089 14 10.5C14 8.911 13.589 8.5 12 8.5ZM23 12.5C23 17.528 21.59 20.665 18.478 22.247C18.258 18.282 16.235 16.5 12 16.5C7.765 16.5 5.742 18.282 5.522 22.247C2.411 20.665 1 17.527 1 12.5C1 4.79 4.29 1.5 12 1.5C19.71 1.5 23 4.79 23 12.5ZM16 10.5C16 7.809 14.691 6.5 12 6.5C9.309 6.5 8 7.809 8 10.5C8 13.191 9.309 14.5 12 14.5C14.691 14.5 16 13.191 16 10.5Z" fill="#758BFD"/>
</svg>
