<svg width="24" height="24" viewBox="0 0 24 24" fill="none" xmlns="http://www.w3.org/2000/svg">
<g clip-path="url(#clip0_399_1817)">
<path d="M23.4124 2.18774C23.0207 1.79611 22.5501 1.6001 21.9999 1.6001H2C1.45001 1.6001 0.979313 1.79611 0.587421 2.18774C0.195749 2.5795 0 3.05015 0 3.60019V17.2003C0 17.7504 0.195749 18.2211 0.587421 18.6129C0.979313 19.0045 1.45001 19.2002 2 19.2002H8.80011C8.80011 19.5168 8.73339 19.8421 8.60003 20.1752C8.46676 20.5085 8.3334 20.8001 8.20004 21.05C8.06685 21.3002 8.00017 21.4833 8.00017 21.5999C8.00017 21.8165 8.07929 22.0044 8.23765 22.1623C8.39592 22.3209 8.58344 22.4003 8.80011 22.4003H15.2001C15.4168 22.4003 15.6043 22.3209 15.7626 22.1623C15.9211 22.0045 16.0002 21.8166 16.0002 21.5999C16.0002 21.4918 15.9334 21.3104 15.8001 21.0563C15.6667 20.8023 15.5334 20.5062 15.4002 20.169C15.2668 19.8314 15.2001 19.5085 15.2001 19.2002H22.0003C22.5502 19.2002 23.0208 19.0045 23.4124 18.6129C23.8042 18.2211 24 17.7505 24 17.2003V3.60019C24.0002 3.05015 23.8042 2.5795 23.4124 2.18774ZM22.4 14.0002C22.4 14.1086 22.3605 14.2022 22.2813 14.2815C22.2021 14.3605 22.1083 14.4 21.9999 14.4H2C1.89173 14.4 1.79795 14.3605 1.71879 14.2815C1.63968 14.2019 1.60005 14.1086 1.60005 14.0002V3.60019C1.60005 3.49182 1.63954 3.39813 1.71879 3.31897C1.79799 3.23995 1.89177 3.20024 2 3.20024H22.0002C22.1084 3.20024 22.2024 3.23982 22.2813 3.31897C22.3605 3.39818 22.4 3.49187 22.4 3.60019V14.0002Z" fill="#758BFD"/>
</g>
<defs>
<clipPath id="clip0_399_1817">
<rect width="24" height="24" fill="white"/>
</clipPath>
</defs>
</svg>
