<?xml version="1.0" encoding="UTF-8"?>
<svg id="Capa_1" data-name="Capa 1" xmlns="http://www.w3.org/2000/svg" viewBox="0 0 67.68 68.25">
  <defs>
    <style>
      .cls-1 {
        fill: #fff;
      }
    </style>
  </defs>
  <path class="cls-1" d="M31.02,38.17V0h5.64V38.17h-5.64Zm2.82,30.08c-4.64,0-9.01-.89-13.11-2.68s-7.69-4.21-10.76-7.29c-3.07-3.07-5.5-6.66-7.29-10.76S0,39.04,0,34.41c0-5.01,1.07-9.7,3.2-14.05s5.14-8.23,9.02-11.61l3.95,3.95c-3.32,2.69-5.91,5.91-7.76,9.64s-2.77,7.75-2.77,12.08c0,7.84,2.74,14.49,8.23,19.98,5.48,5.48,12.14,8.23,19.98,8.23s14.52-2.74,19.99-8.23c5.47-5.48,8.21-12.14,8.21-19.98,0-4.32-.92-8.38-2.77-12.17s-4.37-6.97-7.57-9.54l4.04-3.95c3.76,3.2,6.69,7.02,8.79,11.47s3.15,9.18,3.15,14.2c0,4.64-.89,9.01-2.68,13.11s-4.2,7.69-7.24,10.76c-3.04,3.07-6.61,5.5-10.72,7.29s-8.51,2.68-13.21,2.68Z"/>
</svg>