<svg width="20" height="20" viewBox="0 0 20 20" fill="none" xmlns="http://www.w3.org/2000/svg">
<g clip-path="url(#clip0_285_841)">
<path d="M4.47642 19.5956C4.2573 19.5956 4.03971 19.5273 3.854 19.393C3.50808 19.1423 3.34648 18.7114 3.44063 18.2956L4.72729 12.6278L0.363771 8.80115C0.0430227 8.52114 -0.0795085 8.07771 0.0521782 7.67197C0.183865 7.26699 0.54215 6.98027 0.966356 6.94105L6.73982 6.4169L9.02244 1.07512C9.19075 0.682654 9.57406 0.429199 9.99994 0.429199C10.4258 0.429199 10.8091 0.682654 10.9774 1.0742L13.2601 6.4169L19.0326 6.94105C19.4577 6.97935 19.816 7.26699 19.9477 7.67197C20.0794 8.07695 19.9576 8.52114 19.6369 8.80115L15.2734 12.6271L16.56 18.2946C16.6543 18.7114 16.4926 19.1423 16.1468 19.3922C15.8018 19.6422 15.3417 19.6614 14.9784 19.4431L9.99994 16.468L5.02148 19.4447C4.85317 19.5447 4.66564 19.5956 4.47642 19.5956ZM9.99994 15.1864C10.1892 15.1864 10.3765 15.2372 10.545 15.3371L15.2435 18.1472L14.0291 12.7978C13.9425 12.4171 14.0717 12.0196 14.3659 11.762L18.486 8.14867L13.035 7.65366C12.6425 7.6178 12.305 7.37106 12.1516 7.00942L9.99994 1.96839L7.84565 7.01018C7.69398 7.36938 7.35644 7.61612 6.96489 7.65198L1.51309 8.14699L5.63307 11.7604C5.92818 12.0187 6.05728 12.4154 5.96984 12.7971L4.75643 18.1463L9.45489 15.3371C9.62319 15.2372 9.81073 15.1864 9.99994 15.1864ZM6.69572 6.52021C6.69572 6.52021 6.69572 6.52112 6.6948 6.52188L6.69572 6.52021ZM13.3025 6.51777L13.3034 6.51944C13.3034 6.51853 13.3034 6.51853 13.3025 6.51777Z" fill="#FF8C00"/>
</g>
<defs>
<clipPath id="clip0_285_841">
<rect width="20" height="20" fill="white"/>
</clipPath>
</defs>
</svg>
