<svg width="24" height="24" viewBox="0 0 24 24" fill="none" xmlns="http://www.w3.org/2000/svg">
<g clip-path="url(#clip0_372_3937)">
<path d="M12.6969 3.91298L12.6969 3.91299L17.6314 13.6281C17.7814 13.9234 17.6014 14.2794 17.2747 14.3337L17.2952 14.457L17.2747 14.3337L10.3473 15.4845L6.87859 8.65514L11.9191 3.7825C12.1563 3.55327 12.5476 3.61893 12.6969 3.91298ZM6.55863 18.922L7.22005 18.5861L8.78435 21.6659C9.2772 22.6362 10.4634 23.0233 11.4337 22.5305L11.4337 22.5305L11.658 22.4165C12.6284 21.9236 13.0154 20.7375 12.5226 19.7671L11.0503 16.8684L17.5173 15.7941C18.8308 15.5759 19.5542 14.1448 18.9513 12.9577L14.0168 3.24257C13.4164 2.06048 11.8435 1.79666 10.8902 2.71814L5.53662 7.8934L1.89616 9.74247C0.925824 10.2353 0.538749 11.4215 1.03161 12.3918L3.90931 18.0575C4.40215 19.0278 5.58831 19.4149 6.55863 18.922ZM10.1043 20.9955L8.53996 17.9157L9.63844 17.3577L11.2027 20.4375C11.3253 20.6789 11.229 20.974 10.9876 21.0966L10.9876 21.0966L10.7633 21.2106C10.7633 21.2106 10.7633 21.2106 10.7633 21.2106C10.5219 21.3331 10.2269 21.2369 10.1043 20.9955ZM2.3515 11.7214L2.24005 11.778L2.3515 11.7214C2.2289 11.48 2.32518 11.185 2.56656 11.0624L5.64632 9.49807L8.96804 16.0379L5.88823 17.6021L5.94484 17.7136L5.88823 17.6021C5.64686 17.7247 5.35181 17.6285 5.22922 17.3871L2.3515 11.7214Z" fill="#B7B6BE" stroke="#B7B6BE" stroke-width="0.25"/>
<path d="M19.1069 0.716704L19.1069 0.716692C18.8204 0.425018 18.3518 0.420754 18.0601 0.707174L18.0601 0.707178L15.3856 3.33346C15.3856 3.33347 15.3856 3.33347 15.3856 3.33347C15.0939 3.6199 15.0897 4.08852 15.376 4.38021L15.376 4.38022C15.6625 4.67193 16.1311 4.67614 16.4228 4.38978L16.4228 4.38976L19.0973 1.76345C19.0973 1.76345 19.0973 1.76345 19.0973 1.76345C19.389 1.47702 19.3932 1.00837 19.1069 0.716704Z" fill="#B7B6BE" stroke="#B7B6BE" stroke-width="0.25"/>
<path d="M22.2741 4.31189C22.0761 3.9543 21.6256 3.82491 21.268 4.02292L21.3285 4.13221L21.268 4.02292L17.2315 6.25804L17.2315 6.25805C16.8739 6.45612 16.7445 6.90652 16.9425 7.26417L16.9425 7.2642C17.1406 7.62177 17.591 7.75116 17.9487 7.55316L17.9487 7.55316L21.9851 5.31803L21.9851 5.31803C22.3427 5.11996 22.4721 4.66956 22.2741 4.31189ZM22.2741 4.31189L22.1647 4.37245L22.2741 4.31189Z" fill="#B7B6BE" stroke="#B7B6BE" stroke-width="0.25"/>
<path d="M24.1064 8.85203L24.1064 8.85206C24.197 9.25071 23.9474 9.6473 23.5488 9.73797L23.5488 9.73798L19.44 10.6722L19.44 10.6722C19.0414 10.7628 18.6448 10.5132 18.5542 10.1146L24.1064 8.85203ZM24.1064 8.85203C24.0158 8.45345 23.6192 8.20378 23.2205 8.29445C23.2205 8.29445 23.2205 8.29445 23.2205 8.29445L19.1118 9.22862L19.1118 9.22862M24.1064 8.85203L19.1118 9.22862M19.1118 9.22862C18.7132 9.31929 18.4635 9.71587 18.5541 10.1145L19.1118 9.22862Z" fill="#B7B6BE" stroke="#B7B6BE" stroke-width="0.25"/>
</g>
<defs>
<clipPath id="clip0_372_3937">
<rect width="24" height="24" fill="white"/>
</clipPath>
</defs>
</svg>
