<svg xmlns="http://www.w3.org/2000/svg" width="128" height="48" viewBox="0 0 128 48"><defs><style>.a,.b{fill:#fff;}.a{opacity:0;}.c{fill:#ff9300;}</style></defs><g transform="translate(-81 -9)"><rect class="a" width="128" height="48" transform="translate(81 9)"/><g transform="translate(-429.634 251.757)"><g transform="translate(514.634 -238.757)"><g transform="translate(38.463 13.076)"><path class="b" d="M712.04-164.7c0,2.6-1.9,4.147-5.078,4.147a6.516,6.516,0,0,1-5.051-2.219,1.175,1.175,0,0,1-.252-.721,1.1,1.1,0,0,1,1.074-1.114,1.1,1.1,0,0,1,.8.371,4.447,4.447,0,0,0,3.428,1.367c1.031,0,2.759-.237,2.759-1.831,0-1.154-1.351-1.628-2.918-2.177-2.026-.712-4.55-1.6-4.55-4.478,0-2.357,1.762-3.823,4.595-3.823a5.372,5.372,0,0,1,4.517,1.989,1.17,1.17,0,0,1,.249.715,1.1,1.1,0,0,1-1.074,1.114,1.046,1.046,0,0,1-.773-.341,3.715,3.715,0,0,0-2.918-1.161c-1.979,0-2.277.944-2.277,1.507,0,1.2,1.381,1.692,2.98,2.264,2.1.752,4.488,1.6,4.488,4.391" transform="translate(-701.659 175.175)"/></g><g transform="translate(52.631 8.584)"><path class="b" d="M773.207-195.578a1.257,1.257,0,0,1-1.33,1.379,1.257,1.257,0,0,1-1.33-1.379c0-.941.461-1.438,1.33-1.438s1.33.5,1.33,1.438" transform="translate(-770.548 197.016)"/></g><g transform="translate(52.801 13.224)"><path class="b" d="M773.7-173.256V-161.3a1.168,1.168,0,0,1-1.159,1.2,1.169,1.169,0,0,1-1.159-1.2v-11.955a1.169,1.169,0,0,1,1.159-1.2,1.168,1.168,0,0,1,1.159,1.2" transform="translate(-771.377 174.458)"/></g><g transform="translate(58.48 9.851)"><path class="b" d="M805.795-174.27a1.125,1.125,0,0,1-1.131,1.143c-2.257,0-3.715-1.557-3.715-3.97v-7.867h-.857a1.112,1.112,0,0,1-1.1-1.143,1.112,1.112,0,0,1,1.1-1.143h.857v-2.406a1.213,1.213,0,0,1,1.159-1.2,1.183,1.183,0,0,1,1.159,1.2v2.406h1.6a1.112,1.112,0,0,1,1.1,1.143,1.112,1.112,0,0,1-1.1,1.143h-1.6v7.867c0,1.055.523,1.684,1.4,1.684a1.125,1.125,0,0,1,1.131,1.143" transform="translate(-798.99 190.859)"/></g><g transform="translate(69.071 13.047)"><path class="b" d="M870.523-169.845v7.862a1.169,1.169,0,0,1-1.159,1.2,1.169,1.169,0,0,1-1.159-1.2v-7.479c0-2.562-.987-3.656-3.3-3.656-2.19,0-3.3,1.1-3.3,3.274v7.862a1.169,1.169,0,0,1-1.159,1.2,1.169,1.169,0,0,1-1.159-1.2v-7.479c0-2.6-.939-3.656-3.242-3.656-2.241,0-3.242,1.192-3.242,3.862v7.273a1.169,1.169,0,0,1-1.159,1.2,1.169,1.169,0,0,1-1.159-1.2v-11.955a1.169,1.169,0,0,1,1.159-1.2,1.169,1.169,0,0,1,1.159,1.2v.087a4.466,4.466,0,0,1,3.441-1.466,5.422,5.422,0,0,1,4.518,1.864,4.816,4.816,0,0,1,4.142-1.864c4.642,0,5.617,2.976,5.617,5.472" transform="translate(-850.486 175.317)"/></g><g transform="translate(93.01 13.224)"><path class="b" d="M977.95-173.256v7.686a6.182,6.182,0,0,1-1.046,3.892c-.905,1.162-2.372,1.727-4.486,1.727-5.532,0-5.532-4.228-5.532-5.619v-7.686a1.169,1.169,0,0,1,1.159-1.2,1.183,1.183,0,0,1,1.159,1.2v7.686c0,2.316.96,3.3,3.214,3.3s3.214-.987,3.214-3.3v-7.686a1.2,1.2,0,0,1,1.188-1.2,1.17,1.17,0,0,1,1.131,1.2" transform="translate(-966.886 174.458)"/></g><g transform="translate(108.398 13.047)"><path class="b" d="M1053.033-169.845v7.862a1.169,1.169,0,0,1-1.159,1.2,1.168,1.168,0,0,1-1.159-1.2v-7.479c0-2.195-.538-3.656-3.157-3.656-2.34,0-3.526,1.3-3.526,3.862v7.273a1.169,1.169,0,0,1-1.159,1.2,1.169,1.169,0,0,1-1.159-1.2v-11.955a1.169,1.169,0,0,1,1.159-1.2,1.169,1.169,0,0,1,1.159,1.2v.1a4.626,4.626,0,0,1,3.526-1.483c3.633,0,5.475,1.841,5.475,5.472" transform="translate(-1041.713 175.317)"/></g><g transform="translate(4.815 11.275)"><line class="c" x2="20.429" y2="17.58"/></g><g transform="translate(4.15 10.502)"><rect class="b" width="2.039" height="26.952" transform="translate(0 1.545) rotate(-49.287)"/></g><g transform="translate(4.733 4.799)"><line class="c" y1="6.205" x2="10.36"/></g><g transform="translate(4.209 3.924)"><rect class="b" width="12.076" height="2.039" transform="matrix(0.858, -0.514, 0.514, 0.858, 0, 6.205)"/></g><g transform="translate(15.03 28.6)"><line class="c" y1="6.027" x2="10.064" transform="translate(0 0)"/></g><g transform="translate(14.506 27.725)"><rect class="b" width="11.731" height="2.039" transform="matrix(0.858, -0.514, 0.514, 0.858, 0, 6.028)"/></g><g transform="translate(1.019 7.348)"><path class="c" d="M526.88-199.251a3.714,3.714,0,0,1-3.644,3.779,3.714,3.714,0,0,1-3.645-3.779,3.714,3.714,0,0,1,3.645-3.779,3.714,3.714,0,0,1,3.644,3.779" transform="translate(-519.591 203.03)"/></g><g transform="translate(0 6.328)"><path class="b" d="M519.3-198.389a4.738,4.738,0,0,1-4.664-4.8,4.738,4.738,0,0,1,4.664-4.8,4.738,4.738,0,0,1,4.664,4.8A4.738,4.738,0,0,1,519.3-198.389Zm0-7.559a2.7,2.7,0,0,0-2.625,2.76,2.7,2.7,0,0,0,2.625,2.76,2.7,2.7,0,0,0,2.625-2.76A2.7,2.7,0,0,0,519.3-205.947Z" transform="translate(-514.634 207.986)"/></g><g transform="translate(11.19 16.137)"><path class="c" d="M576.332-156.515a3.714,3.714,0,0,1-3.644,3.779,3.714,3.714,0,0,1-3.644-3.779,3.714,3.714,0,0,1,3.644-3.779,3.714,3.714,0,0,1,3.644,3.779" transform="translate(-569.043 160.294)"/></g><g transform="translate(10.17 15.117)"><path class="b" d="M568.75-155.653a4.738,4.738,0,0,1-4.664-4.8,4.738,4.738,0,0,1,4.664-4.8,4.738,4.738,0,0,1,4.664,4.8A4.738,4.738,0,0,1,568.75-155.653Zm0-7.559a2.7,2.7,0,0,0-2.625,2.76,2.7,2.7,0,0,0,2.625,2.76,2.7,2.7,0,0,0,2.625-2.76A2.7,2.7,0,0,0,568.75-163.211Z" transform="translate(-564.086 165.25)"/></g><g transform="translate(11.11 1.019)"><path class="c" d="M575.943-230.022a3.714,3.714,0,0,1-3.644,3.779,3.713,3.713,0,0,1-3.644-3.779A3.714,3.714,0,0,1,572.3-233.8a3.714,3.714,0,0,1,3.644,3.779" transform="translate(-568.654 233.801)"/></g><g transform="translate(10.09)"><path class="b" d="M568.361-229.16a4.738,4.738,0,0,1-4.664-4.8,4.738,4.738,0,0,1,4.664-4.8,4.738,4.738,0,0,1,4.663,4.8A4.738,4.738,0,0,1,568.361-229.16Zm0-7.559a2.7,2.7,0,0,0-2.625,2.76,2.7,2.7,0,0,0,2.625,2.76,2.7,2.7,0,0,0,2.625-2.76A2.7,2.7,0,0,0,568.361-236.718Z" transform="translate(-563.697 238.757)"/></g><g transform="translate(11.101 31.041)"><path class="c" d="M575.9-84.043a3.714,3.714,0,0,1-3.644,3.779,3.714,3.714,0,0,1-3.644-3.779,3.714,3.714,0,0,1,3.644-3.779,3.714,3.714,0,0,1,3.644,3.779" transform="translate(-568.61 87.822)"/></g><g transform="translate(10.081 30.022)"><path class="b" d="M568.317-83.181a4.738,4.738,0,0,1-4.664-4.8,4.738,4.738,0,0,1,4.664-4.8,4.738,4.738,0,0,1,4.664,4.8A4.738,4.738,0,0,1,568.317-83.181Zm0-7.559a2.7,2.7,0,0,0-2.625,2.76,2.7,2.7,0,0,0,2.625,2.76,2.7,2.7,0,0,0,2.625-2.76A2.7,2.7,0,0,0,568.317-90.739Z" transform="translate(-563.653 92.778)"/></g><g transform="translate(21.396 24.926)"><path class="c" d="M625.959-113.779A3.714,3.714,0,0,1,622.314-110a3.714,3.714,0,0,1-3.644-3.779,3.714,3.714,0,0,1,3.644-3.779,3.714,3.714,0,0,1,3.644,3.779" transform="translate(-618.67 117.558)"/></g><g transform="translate(20.376 23.906)"><path class="b" d="M618.377-112.917a4.738,4.738,0,0,1-4.664-4.8,4.738,4.738,0,0,1,4.664-4.8,4.738,4.738,0,0,1,4.663,4.8A4.738,4.738,0,0,1,618.377-112.917Zm0-7.559a2.7,2.7,0,0,0-2.625,2.76,2.7,2.7,0,0,0,2.625,2.76,2.7,2.7,0,0,0,2.625-2.76A2.7,2.7,0,0,0,618.377-120.475Z" transform="translate(-613.713 122.514)"/></g><g transform="translate(1.135 24.926)"><path class="c" d="M527.444-113.779A3.714,3.714,0,0,1,523.8-110a3.714,3.714,0,0,1-3.644-3.779,3.714,3.714,0,0,1,3.644-3.779,3.714,3.714,0,0,1,3.644,3.779" transform="translate(-520.155 117.558)"/></g><g transform="translate(0.116 23.906)"><path class="b" d="M519.862-112.917a4.738,4.738,0,0,1-4.664-4.8,4.738,4.738,0,0,1,4.664-4.8,4.738,4.738,0,0,1,4.664,4.8A4.738,4.738,0,0,1,519.862-112.917Zm0-7.559a2.7,2.7,0,0,0-2.625,2.76,2.7,2.7,0,0,0,2.625,2.76,2.7,2.7,0,0,0,2.625-2.76A2.7,2.7,0,0,0,519.862-120.475Z" transform="translate(-515.198 122.514)"/></g><g transform="translate(21.449 7.348)"><path class="c" d="M626.219-199.251a3.714,3.714,0,0,1-3.644,3.779,3.714,3.714,0,0,1-3.644-3.779,3.713,3.713,0,0,1,3.644-3.779,3.714,3.714,0,0,1,3.644,3.779" transform="translate(-618.93 203.03)"/></g><g transform="translate(20.43 6.328)"><path class="b" d="M618.637-198.389a4.738,4.738,0,0,1-4.664-4.8,4.738,4.738,0,0,1,4.664-4.8,4.738,4.738,0,0,1,4.664,4.8A4.738,4.738,0,0,1,618.637-198.389Zm0-7.559a2.7,2.7,0,0,0-2.625,2.76,2.7,2.7,0,0,0,2.625,2.76,2.7,2.7,0,0,0,2.625-2.76A2.7,2.7,0,0,0,618.637-205.947Z" transform="translate(-613.973 207.986)"/></g></g></g></g></svg>