<svg width="30" height="30" viewBox="0 0 30 30" fill="none" xmlns="http://www.w3.org/2000/svg">
<path fill-rule="evenodd" clip-rule="evenodd" d="M6.25061 21.9831C5.76249 22.4713 5.76256 23.2627 6.25076 23.7508C6.73896 24.239 7.53041 24.239 8.01852 23.7507L15.0001 16.768L21.9822 23.7501C22.4703 24.2382 23.2618 24.2382 23.75 23.7501C24.2381 23.262 24.2381 22.4705 23.75 21.9823L16.7677 15.0001L23.7495 8.01711C24.2374 7.52891 24.2374 6.73746 23.7492 6.24935C23.2611 5.76122 22.4696 5.7613 21.9814 6.2495L14.9998 13.2323L8.01767 6.2501C7.52952 5.76195 6.73806 5.76195 6.24991 6.2501C5.76175 6.73826 5.76175 7.52971 6.24991 8.01787L13.2323 15.0002L6.25061 21.9831Z" fill="#3A455A"/>
</svg>
