<svg width="20" height="20" viewBox="0 0 20 20" fill="none" xmlns="http://www.w3.org/2000/svg">
<g clip-path="url(#clip0_197_2126)">
<path d="M17.0754 2.92755C13.1759 -0.971943 6.82893 -0.971943 2.92944 2.92755C1.04052 4.81721 0 7.32908 0 10.0005C0 12.6719 1.04052 15.1838 2.92944 17.0727C4.87958 19.0229 7.44101 19.9975 10.0024 19.9975C12.5638 19.9975 15.1253 19.0229 17.0754 17.0727C20.9749 13.1732 20.9749 6.82778 17.0754 2.92755ZM15.9798 15.9772C12.6839 19.2731 7.32089 19.2731 4.02496 15.9772C2.42893 14.3811 1.54955 12.2582 1.54955 10.0005C1.54955 7.74279 2.42893 5.61988 4.02496 4.02307C7.32089 0.727136 12.6839 0.727917 15.9798 4.02307C19.275 7.319 19.275 12.682 15.9798 15.9772Z" fill="#B7B6BE"/>
<path d="M13.3409 12.1417L11.1475 9.95143L13.3409 7.76114C13.6431 7.45898 13.6431 6.96855 13.3417 6.66558C13.0388 6.36186 12.5484 6.36265 12.2454 6.6648L10.0505 8.85665L7.85553 6.6648C7.5526 6.36265 7.06216 6.36186 6.75923 6.66558C6.45708 6.96851 6.45708 7.45895 6.76001 7.76114L8.95343 9.95143L6.76001 12.1417C6.45708 12.4439 6.45708 12.9343 6.75923 13.2373C6.91033 13.3891 7.10943 13.4643 7.30779 13.4643C7.50615 13.4643 7.70447 13.3883 7.85557 13.238L10.0505 11.0462L12.2455 13.238C12.3966 13.3891 12.5949 13.4643 12.7932 13.4643C12.9916 13.4643 13.1907 13.3883 13.3418 13.2373C13.6439 12.9343 13.6439 12.4439 13.3409 12.1417Z" fill="#B7B6BE"/>
</g>
<defs>
<clipPath id="clip0_197_2126">
<rect width="20" height="20" fill="white"/>
</clipPath>
</defs>
</svg>
