<svg width="24" height="24" viewBox="0 0 24 24" fill="none" xmlns="http://www.w3.org/2000/svg">
<g clip-path="url(#clip0_500_1875)">
<path d="M23.2668 9.40741C22.3644 7.92966 21.2261 6.60968 19.897 5.49986L22.696 2.70091C23.0795 2.3038 23.0685 1.67098 22.6714 1.28745C22.284 0.913296 21.6699 0.913296 21.2825 1.28745L18.2386 4.33531C16.3517 3.21457 14.1945 2.63039 11.9999 2.64595C5.81123 2.64595 2.28454 6.88239 0.733127 9.40746C-0.244416 10.9886 -0.244416 12.9864 0.733127 14.5676C1.63556 16.0453 2.77387 17.3653 4.10289 18.4751L1.30395 21.274C0.906828 21.6576 0.895817 22.2904 1.27935 22.6875C1.66288 23.0846 2.29573 23.0956 2.69281 22.7121C2.70115 22.7041 2.70935 22.6959 2.71741 22.6875L5.76826 19.6367C7.65282 20.7573 9.80743 21.3424 11.9999 21.329C18.1887 21.329 21.7154 17.0926 23.2668 14.5675C24.2444 12.9864 24.2444 10.9886 23.2668 9.40741ZM6.00222 11.9875C5.99655 8.68051 8.67273 5.9951 11.9797 5.98943C13.2309 5.98727 14.4514 6.37717 15.4697 7.10431L14.0182 8.55577C13.4089 8.18831 12.7115 7.99245 12 7.98898C9.79169 7.98898 8.00149 9.77918 8.00149 11.9875C8.00496 12.699 8.20082 13.3964 8.56828 14.0057L7.11682 15.4572C6.39203 14.4454 6.00227 13.2321 6.00222 11.9875ZM12 17.9853C10.7554 17.9852 9.54208 17.5954 8.53028 16.8707L9.98174 15.4192C10.5911 15.7867 11.2885 15.9825 12 15.986C14.2083 15.986 15.9985 14.1958 15.9985 11.9875C15.995 11.2759 15.7992 10.5786 15.4317 9.96923L16.8832 8.51777C18.8049 11.209 18.1812 14.9486 15.49 16.8704C14.4717 17.5975 13.2512 17.9874 12 17.9853Z" fill="#F2F2F3"/>
</g>
<defs>
<clipPath id="clip0_500_1875">
<rect width="24" height="24" fill="white"/>
</clipPath>
</defs>
</svg>
