<svg width="25" height="25" viewBox="0 0 25 25" fill="none" xmlns="http://www.w3.org/2000/svg">
<path d="M17.9688 23.4375H7.03125C3.98438 23.4375 1.5625 21.0156 1.5625 17.9688V10.3906C1.5625 8.51562 2.57813 6.71875 4.14063 5.70313L9.60938 2.34375C11.4062 1.25 13.5938 1.25 15.3125 2.34375L20.7812 5.70313C22.4219 6.71875 23.3594 8.4375 23.3594 10.3906V17.9688C23.4375 21.0156 21.0156 23.4375 17.9688 23.4375ZM12.5 3.125C11.7969 3.125 11.0938 3.28125 10.4688 3.67187L5 7.03125C3.82812 7.8125 3.125 9.0625 3.125 10.3906V17.9688C3.125 20.1562 4.84375 21.875 7.03125 21.875H17.9688C20.1562 21.875 21.875 20.1562 21.875 17.9688V10.3906C21.875 9.0625 21.1719 7.73438 20 7.03125L14.5312 3.67187C13.9062 3.28125 13.2031 3.125 12.5 3.125Z" fill="#848484"/>
<path d="M10.9375 12.5H9.375C8.90625 12.5 8.59375 12.1875 8.59375 11.7188V10.1562C8.59375 9.6875 8.90625 9.375 9.375 9.375H10.9375C11.4062 9.375 11.7188 9.6875 11.7188 10.1562V11.7188C11.7188 12.1875 11.4062 12.5 10.9375 12.5Z" fill="#848484"/>
<path d="M15.625 12.5H14.0625C13.5937 12.5 13.2812 12.1875 13.2812 11.7188V10.1562C13.2812 9.6875 13.5937 9.375 14.0625 9.375H15.625C16.0938 9.375 16.4062 9.6875 16.4062 10.1562V11.7188C16.4062 12.1875 16.0938 12.5 15.625 12.5Z" fill="#848484"/>
<path d="M10.9375 17.1875H9.375C8.90625 17.1875 8.59375 16.875 8.59375 16.4062V14.8438C8.59375 14.375 8.90625 14.0625 9.375 14.0625H10.9375C11.4062 14.0625 11.7188 14.375 11.7188 14.8438V16.4062C11.7188 16.875 11.4062 17.1875 10.9375 17.1875Z" fill="#848484"/>
<path d="M15.625 17.1875H14.0625C13.5937 17.1875 13.2812 16.875 13.2812 16.4062V14.8438C13.2812 14.375 13.5937 14.0625 14.0625 14.0625H15.625C16.0938 14.0625 16.4062 14.375 16.4062 14.8438V16.4062C16.4062 16.875 16.0938 17.1875 15.625 17.1875Z" fill="#848484"/>
</svg>
