<svg width="24" height="24" viewBox="0 0 24 24" fill="none" xmlns="http://www.w3.org/2000/svg">
<g clip-path="url(#clip0_399_1743)">
<path d="M20.7432 6.85303L14.258 13.3382C13.5349 14.0595 12.5552 14.4646 11.5339 14.4646C10.5125 14.4646 9.53284 14.0595 8.80972 13.3382L2.3245 6.85303C2.31372 6.97475 2.28906 7.08492 2.28906 7.20587V16.4507C2.29029 17.4719 2.69651 18.451 3.41864 19.1731C4.14076 19.8952 5.11982 20.3014 6.14106 20.3027H16.9267C17.9479 20.3014 18.9269 19.8952 19.6491 19.1731C20.3712 18.451 20.7774 17.4719 20.7786 16.4507V7.20587C20.7786 7.08492 20.754 6.97475 20.7432 6.85303Z" fill="#758BFD"/>
<path d="M13.1677 12.249L20.2046 5.21144C19.8637 4.64621 19.3829 4.17836 18.8086 3.85301C18.2343 3.52767 17.5858 3.35581 16.9257 3.354H6.14015C5.48009 3.35581 4.83163 3.52767 4.25731 3.85301C3.683 4.17836 3.20221 4.64621 2.86133 5.21144L9.89816 12.249C10.3323 12.6815 10.9202 12.9243 11.5329 12.9243C12.1457 12.9243 12.7336 12.6815 13.1677 12.249Z" fill="#758BFD"/>
</g>
<defs>
<clipPath id="clip0_399_1743">
<rect width="18.4896" height="18.4896" fill="white" transform="translate(2.28906 2.5835)"/>
</clipPath>
</defs>
</svg>
