<svg width="25" height="24" viewBox="0 0 25 24" fill="none" xmlns="http://www.w3.org/2000/svg">
<g clip-path="url(#clip0_821_1393)">
<path d="M23.8819 8.82248L17.8818 2.82237C17.547 2.48768 17.0043 2.48778 16.6696 2.82257C16.5089 2.98329 16.4187 3.20116 16.4186 3.42842V5.99989H10.4185C9.94509 5.99989 9.56133 6.38365 9.56133 6.85706C9.56133 7.33048 9.94509 7.71424 10.4185 7.71424H17.2758C17.7492 7.71424 18.133 7.33048 18.133 6.85706V5.49755L22.0639 9.42848L18.133 13.3594V12C18.133 11.5265 17.7492 11.1428 17.2758 11.1428H7.84703V8.57131C7.84693 8.0979 7.46307 7.71424 6.98971 7.71434C6.7625 7.71439 6.54457 7.80464 6.38386 7.96531L0.383794 13.9654C0.0491518 14.3002 0.0491518 14.8427 0.383794 15.1774L6.38391 21.1775C6.54462 21.3383 6.7626 21.4287 6.98991 21.4287C7.10256 21.4291 7.21421 21.4069 7.31817 21.3636C7.6384 21.2308 7.84713 20.9182 7.84703 20.5715V18.0001H13.8471C14.3206 18.0001 14.7043 17.6163 14.7043 17.1429C14.7043 16.6695 14.3206 16.2857 13.8471 16.2857H6.98991C6.5165 16.2857 6.13274 16.6695 6.13274 17.1429V18.5024L2.2018 14.5714L6.13274 10.6405V12C6.13274 12.4734 6.5165 12.8571 6.98991 12.8571H16.4186V15.4286C16.4187 15.902 16.8026 16.2857 17.2759 16.2856C17.5032 16.2855 17.7211 16.1953 17.8818 16.0346L23.8819 10.0345C24.2165 9.69974 24.2165 9.15717 23.8819 8.82248Z" fill="white"/>
</g>
<defs>
<clipPath id="clip0_821_1393">
<rect width="24" height="24" fill="white" transform="translate(0.132812)"/>
</clipPath>
</defs>
</svg>
