<svg width="24" height="24" viewBox="0 0 24 24" fill="none" xmlns="http://www.w3.org/2000/svg">
<path d="M23.821 11.181C22.943 9.261 19.5 3 12 3C4.50002 3 1.05702 9.261 0.179024 11.181C0.0611621 11.4383 0.000152588 11.718 0.000152588 12.001C0.000152588 12.284 0.0611621 12.5637 0.179024 12.821C1.05702 14.739 4.50002 21 12 21C19.5 21 22.943 14.739 23.821 12.819C23.9387 12.562 23.9995 12.2827 23.9995 12C23.9995 11.7173 23.9387 11.438 23.821 11.181ZM12 18C10.8133 18 9.6533 17.6481 8.6666 16.9888C7.67991 16.3295 6.91087 15.3925 6.45675 14.2961C6.00262 13.1997 5.8838 11.9933 6.11531 10.8295C6.34682 9.66557 6.91827 8.59647 7.75738 7.75736C8.5965 6.91824 9.6656 6.3468 10.8295 6.11529C11.9934 5.88378 13.1998 6.0026 14.2961 6.45672C15.3925 6.91085 16.3296 7.67988 16.9888 8.66658C17.6481 9.65327 18 10.8133 18 12C17.9984 13.5908 17.3658 15.116 16.2409 16.2409C15.116 17.3658 13.5908 17.9984 12 18Z" fill="#F2F2F3"/>
<path d="M12 16C14.2092 16 16 14.2091 16 12C16 9.79086 14.2092 8 12 8C9.79089 8 8.00003 9.79086 8.00003 12C8.00003 14.2091 9.79089 16 12 16Z" fill="#F2F2F3"/>
</svg>
